<svg width="24" height="24" viewBox="0 0 24 24" fill="none" xmlns="http://www.w3.org/2000/svg">
<path d="M2 20.0001H22M20 11.4522V20.0002L14 20.0001V16.0001C14 14.8955 13.1046 14.0001 12 14.0001C10.8954 14.0001 10 14.8955 10 16.0001V20.0001H4V11.4522C4 10.9179 4 10.6507 4.06497 10.4021C4.12255 10.1817 4.2173 9.97275 4.34521 9.78433C4.48955 9.5717 4.69064 9.39582 5.09277 9.04395L9.89278 4.84395C10.6394 4.19066 11.0125 3.86406 11.4326 3.73982C11.8028 3.63035 12.1972 3.63035 12.5674 3.73982C12.9875 3.86406 13.3608 4.19066 14.1074 4.84395L18.9074 9.04395C19.3096 9.39581 19.5104 9.5717 19.6548 9.78432C19.7827 9.97275 19.8775 10.1817 19.9351 10.4021C20 10.6507 20 10.9179 20 11.4522Z" stroke="#B3DBDA" stroke-width="2" stroke-linecap="round" stroke-linejoin="round"/>
</svg>
