<svg width="28" height="28" viewBox="0 0 28 28" fill="none" xmlns="http://www.w3.org/2000/svg">
<path d="M17.8894 4.375H10.1097C8.58915 4.37616 7.13117 4.98073 6.05595 6.05595C4.98073 7.13117 4.37616 8.58916 4.375 10.1097V17.8894C4.37593 19.4101 4.98039 20.8683 6.05564 21.9437C7.13089 23.0192 8.589 23.6238 10.1097 23.625H17.8894C19.41 23.6236 20.868 23.0188 21.9432 21.9435C23.0184 20.8681 23.623 19.4101 23.6241 17.8894V10.1097C23.6234 8.58901 23.019 7.13076 21.9437 6.05544C20.8684 4.98011 19.4101 4.3757 17.8894 4.375ZM21.6886 17.8894C21.6884 18.8969 21.288 19.8631 20.5756 20.5756C19.8631 21.288 18.8969 21.6884 17.8894 21.6886H10.1097C9.61087 21.6886 9.11687 21.5903 8.65597 21.3994C8.19508 21.2085 7.77631 20.9286 7.42358 20.5758C7.07086 20.223 6.79109 19.8042 6.60026 19.3432C6.40942 18.8823 6.31126 18.3883 6.31137 17.8894V10.1097C6.31126 9.61091 6.40943 9.11693 6.60027 8.65604C6.79112 8.19515 7.0709 7.77637 7.42364 7.42364C7.77637 7.0709 8.19515 6.79112 8.65604 6.60028C9.11693 6.40943 9.61091 6.31126 10.1097 6.31137H17.8894C18.8967 6.31161 19.8627 6.71187 20.575 7.42415C21.2873 8.13643 21.6875 9.10243 21.6877 10.1097L21.6886 17.8894Z" fill="#B3DBDA"/>
<path d="M14.0004 9.02306C11.2547 9.02306 9.02344 11.2552 9.02344 14.0001C9.02344 16.7449 11.2556 18.9771 14.0004 18.9771C16.7453 18.9771 18.9774 16.7449 18.9774 14.0001C18.9774 11.2552 16.7462 9.02306 14.0004 9.02306ZM14.0004 17.0407C13.194 17.0408 12.4206 16.7206 11.8503 16.1504C11.28 15.5803 10.9595 14.8069 10.9594 14.0005C10.9593 13.1941 11.2795 12.4206 11.8496 11.8503C12.4198 11.28 13.1931 10.9596 13.9996 10.9594C14.806 10.9593 15.5794 11.2796 16.1497 11.8497C16.72 12.4199 17.0405 13.1932 17.0406 13.9996C17.0407 14.806 16.7205 15.5795 16.1504 16.1498C15.5802 16.7201 14.8069 17.0406 14.0004 17.0407ZM18.9879 7.86719C19.2237 7.86736 19.4542 7.93743 19.6502 8.06855C19.8462 8.19966 19.9989 8.38593 20.0891 8.60382C20.1792 8.82171 20.2028 9.06143 20.1567 9.2927C20.1107 9.52396 19.9971 9.73639 19.8304 9.90313C19.6636 10.0699 19.4512 10.1834 19.2199 10.2295C18.9887 10.2755 18.749 10.252 18.5311 10.1618C18.3132 10.0717 18.1269 9.91894 17.9958 9.72295C17.8647 9.52695 17.7946 9.29649 17.7944 9.06069C17.7944 8.40269 18.2407 7.86719 18.9879 7.86719Z" fill="#B3DBDA"/>
</svg>
