<svg width="20" height="20" viewBox="0 0 20 20" fill="none" xmlns="http://www.w3.org/2000/svg">
<path d="M7.91912 3.54768C7.66602 2.91492 7.05317 2.5 6.37166 2.5H4.07895C3.20692 2.5 2.5 3.20695 2.5 4.07898C2.5 11.4912 8.50898 17.5 15.9212 17.5C16.7933 17.5 17.5 16.7931 17.5 15.9211L17.4999 13.6284C17.4999 12.9468 17.0849 12.3341 16.4522 12.0809L14.2559 11.2024C13.6876 10.975 13.0404 11.0775 12.5702 11.4694L12.0026 11.9423C11.3404 12.4941 10.3666 12.45 9.75712 11.8405L8.15947 10.2429C7.54994 9.63339 7.50602 8.65961 8.05786 7.9974L8.53068 7.42998C8.92258 6.95969 9.02502 6.31244 8.79766 5.74405L7.91912 3.54768Z" stroke="white" stroke-width="2" stroke-linecap="round" stroke-linejoin="round"/>
</svg>
