<svg width="20" height="20" viewBox="0 0 20 20" fill="none" xmlns="http://www.w3.org/2000/svg">
<path d="M1 10V11H19V10V9H1V10ZM10 19V18C5.58172 18 2 14.4183 2 10H1H0C0 15.5228 4.47715 20 10 20V19ZM1 10H2C2 5.58172 5.58172 2 10 2V1V0C4.47715 0 0 4.47715 0 10H1ZM10 1V2C14.4183 2 18 5.58172 18 10H19H20C20 4.47715 15.5228 0 10 0V1ZM19 10H18C18 14.4183 14.4183 18 10 18V19V20C15.5228 20 20 15.5228 20 10H19ZM10 19V18C9.7731 18 9.48164 17.9007 9.1324 17.5683C8.77801 17.2311 8.41337 16.6958 8.08538 15.9578C7.43054 14.4844 7 12.3789 7 10H6H5C5 12.5917 5.46489 14.9861 6.25776 16.7701C6.65364 17.6608 7.15092 18.4435 7.75363 19.0171C8.3615 19.5956 9.12233 20 10 20V19ZM6 10H7C7 7.62114 7.43054 5.51558 8.08538 4.04218C8.41337 3.30422 8.77801 2.76892 9.1324 2.43166C9.48164 2.0993 9.7731 2 10 2V1V0C9.12233 0 8.3615 0.40438 7.75363 0.982869C7.15092 1.55645 6.65364 2.33918 6.25776 3.2299C5.46489 5.01386 5 7.40829 5 10H6ZM10 1V2C10.2269 2 10.5184 2.0993 10.8676 2.43166C11.222 2.76892 11.5866 3.30422 11.9146 4.04218C12.5695 5.51558 13 7.62114 13 10H14H15C15 7.40829 14.5351 5.01386 13.7422 3.2299C13.3464 2.33918 12.8491 1.55645 12.2464 0.982869C11.6385 0.40438 10.8777 0 10 0V1ZM14 10H13C13 12.3789 12.5695 14.4844 11.9146 15.9578C11.5866 16.6958 11.222 17.2311 10.8676 17.5683C10.5184 17.9007 10.2269 18 10 18V19V20C10.8777 20 11.6385 19.5956 12.2464 19.0171C12.8491 18.4435 13.3464 17.6608 13.7422 16.7701C14.5351 14.9861 15 12.5917 15 10H14Z" fill="#B3DBDA"/>
</svg>
